<svg width="378" height="378" viewBox="0 0 378 378" fill="none" xmlns="http://www.w3.org/2000/svg">
<path d="M300.038 77.3324C285.597 62.7495 268.397 51.1868 249.442 43.3181C230.486 35.4493 210.154 31.4319 189.631 31.4999C103.636 31.4999 33.5483 101.587 33.5483 187.582C33.5483 215.145 40.7933 241.92 54.3383 265.545L32.2883 346.5L114.976 324.765C137.813 337.207 163.486 343.822 189.631 343.822C275.626 343.822 345.713 273.735 345.713 187.74C345.713 146.002 329.491 106.785 300.038 77.3324ZM189.631 317.362C166.321 317.362 143.483 311.062 123.481 299.25L118.756 296.415L69.6158 309.33L82.6883 261.45L79.5383 256.567C66.5847 235.889 59.7079 211.983 59.6933 187.582C59.6933 116.077 117.968 57.8024 189.473 57.8024C224.123 57.8024 256.726 71.3474 281.138 95.9174C293.228 107.948 302.809 122.26 309.325 138.022C315.841 153.785 319.162 170.684 319.096 187.74C319.411 259.245 261.136 317.362 189.631 317.362ZM260.821 220.342C256.883 218.452 237.668 209.002 234.203 207.585C230.581 206.325 228.061 205.695 225.383 209.475C222.706 213.412 215.303 222.232 213.098 224.752C210.893 227.43 208.531 227.745 204.593 225.697C200.656 223.807 188.056 219.555 173.251 206.325C161.596 195.93 153.878 183.172 151.516 179.235C149.311 175.297 151.201 173.25 153.248 171.202C154.981 169.47 157.186 166.635 159.076 164.43C160.966 162.225 161.753 160.492 163.013 157.972C164.273 155.295 163.643 153.09 162.698 151.2C161.753 149.31 153.878 130.095 150.728 122.22C147.578 114.66 144.271 115.605 141.908 115.447H134.348C131.671 115.447 127.576 116.392 123.953 120.33C120.488 124.267 110.408 133.717 110.408 152.932C110.408 172.147 124.426 190.732 126.316 193.252C128.206 195.93 153.878 235.305 192.938 252.157C202.231 256.252 209.476 258.615 215.146 260.347C224.438 263.34 232.943 262.867 239.716 261.922C247.276 260.82 262.868 252.472 266.018 243.337C269.326 234.202 269.326 226.485 268.223 224.752C267.121 223.02 264.758 222.232 260.821 220.342Z" fill="black"/>
</svg>
